<svg xmlns:inkscape="http://www.inkscape.org/namespaces/inkscape" xmlns:sodipodi="http://sodipodi.sourceforge.net/DTD/sodipodi-0.dtd" xmlns="http://www.w3.org/2000/svg" xmlns:svg="http://www.w3.org/2000/svg" id="Layer_1" data-name="Layer 1" viewBox="0 0 692.43 418.72" sodipodi:docname="LOGO FAN COMPLETO Agrandau.svg" inkscape:version="1.2.1 (9c6d41e410, 2022-07-14)"><defs id="defs4"><style id="style2"> .cls-1 { fill: #4f8546; } .cls-1, .cls-2, .cls-3, .cls-4, .cls-5, .cls-6, .cls-7, .cls-8, .cls-9 { stroke-width: 0px; } .cls-2 { fill: #3f3f3e; } .cls-3 { fill: #94a12e; } .cls-4 { fill: #868686; } .cls-5 { fill: #d67700; } .cls-6 { fill: #c64d27; } .cls-7 { fill: #f59f00; } .cls-8 { fill: #a3ac48; } .cls-9 { fill: #fdc82e; } </style></defs><g id="g20" transform="matrix(1.3131549,0,0,1.3131549,-108.79574,-65.764674)"><path class="cls-1" d="m 90.21,337.88 1.12,7.97 c 0,0 8.34,-6.09 24.25,-20.02 12.8,-11.2 18.26,-25.04 26.25,-28.9 7.98,-3.87 12.43,-2.12 12.43,-2.12 l 14.93,-12.31 c 0,0 -3.96,-1.92 -10.34,-1.35 -6.39,0.57 -11.77,2.44 -11.77,2.44 0,0 9.26,-6.51 16.14,-7.25 6.87,-0.74 11.81,0.84 11.81,0.84 l 8.58,-8.47 c 0,0 -10.04,-7.81 -19.07,-5.35 -11.05,3 -13.87,8.11 -13.87,8.11 0,0 4.99,-11.04 -3.18,-22.85 -7.63,-11.03 -14.61,-12.2 -14.61,-12.2 l -1.17,10.79 c 0,0 8.09,4.33 10.16,13.48 2.08,9.15 1.03,17.2 1.03,17.2 0,0 -0.08,-6.56 -5.42,-14.03 -5.34,-7.47 -9.14,-10.54 -9.14,-10.54 0,0 1.68,3.26 -0.35,11.64 -2.03,8.38 -6.34,18.11 -2.83,23.47 3.51,5.37 4.89,10.92 4.89,10.92 0,0 -9.33,14.33 -22.1,25.9 -9.35,8.48 -17.76,12.61 -17.76,12.61" id="path6"></path><path class="cls-3" d="m 157.31,259.79 c 0,0 6.86,-6.46 17.06,-4.64 10.2,1.82 13.69,6.21 13.69,6.21 l 9.17,-8.91 c 0,0 -5.55,-5.48 -13.64,-5.93 -7.99,-0.44 -14.19,1.81 -14.19,1.81 0,0 7.25,-6.1 18.79,-5.06 8.21,0.74 12.72,4.8 12.72,4.8 l 5.11,-5.56 c 0,0 -4.85,-6.26 -18.93,-6.03 -14.03,0.23 -18.53,5.85 -18.53,5.85 0,0 2.21,-13.64 -6.65,-22.81 -8.77,-9.08 -22.22,-8.32 -22.22,-8.32 l -0.85,5.27 c 0,0 10.51,-0.59 17.91,6.41 7.4,7 7.01,21.29 7.01,21.29 0,0 -1.47,-11.01 -10.88,-16.86 -7.32,-4.55 -15.49,-5.78 -15.49,-5.78 l -1.28,6.65 c 0,0 12.77,4.42 17.75,12.85 6.76,11.46 3.45,18.77 3.45,18.77" id="path8"></path><path class="cls-8" d="m 173.37,232.57 c 0,0 1.34,-17.75 -11.19,-24.92 -10.49,-6 -19.53,-3 -19.53,-3 0,0 2.05,-9.55 18.12,-8.03 16.07,1.52 19.01,15.78 22.31,17.18 3.3,1.4 9.88,-3.56 20.61,2.63 10.7,6.18 6.24,19.14 6.24,19.14 0,0 -5.58,-7.58 -17.63,-8.35 -12.06,-0.77 -18.91,5.35 -18.91,5.35" id="path10"></path><path class="cls-6" d="m 186.03,205.64 c 3.35,2.1 13.27,-2.99 21.8,1.55 8.53,4.54 9.12,18.99 9.12,18.99 0,0 13.74,-13 5.63,-28.06 -8.11,-15.06 -25.69,-3.7 -30.82,-5.53 -5.51,-1.96 -5.58,-21.71 -22.19,-22.42 -16.61,-0.71 -23.56,22.16 -23.56,22.16 0,0 9.99,-9.38 24.6,-2.96 14.61,6.42 12.07,14.17 15.42,16.27" id="path12"></path><path class="cls-5" d="m 194.9,186.29 c 1.7,1.06 4.66,-0.04 6.74,-1.87 1.72,-1.52 0.42,-5.44 2.06,-6.08 2.84,-1.12 10.86,-2.16 18.65,1.86 9.65,4.98 10.23,19.42 10.23,19.42 0,0 10.9,-17.67 5.1,-25.95 -10.38,-14.81 -26.17,-9.59 -28.94,-9.84 -2.77,-0.25 -0.52,-6.81 -3.68,-7.46 -3.16,-0.65 -3.71,3.97 -7,3.77 -3.3,-0.2 -9.74,-15.69 -22.23,-15.66 -19.28,0.05 -19.79,22.72 -19.79,22.72 0,0 6.17,-7.23 15.04,-7.37 13.36,-0.2 23.75,12.31 24.63,15.23 0.93,3.1 -2.93,3.17 -2.66,5.89 0.33,3.24 0.14,4.26 1.85,5.34" id="path14"></path><path class="cls-7" d="m 201.16,151.25 c 0.9,1.83 4.81,-3.14 7.53,-2.61 2.73,0.53 3.92,7.04 4.61,6.71 1.95,-0.95 0.34,-4.81 2.44,-6.48 2.1,-1.67 9.65,-1.97 19.46,3.97 8.31,5.02 8.78,17.59 8.78,17.59 0,0 2.88,-16.77 1.73,-25.99 -1.75,-14.07 -7.77,-19.21 -13.78,-19.94 -6.01,-0.73 -14.56,7.06 -15.85,6.44 -1.29,-0.63 -0.3,-8.2 -2.03,-8.54 -1.59,-0.31 -4.16,6.54 -5.8,6.44 -1.64,-0.1 -4.06,-19.11 -20.24,-16.83 -12.85,1.81 -24.35,26.55 -24.35,26.55 0,0 10.48,-6.63 20.6,-4.74 11.03,2.07 19.43,8.13 20.11,10.84 0.67,2.71 -3.76,5.46 -3.2,6.6" id="path16"></path><path class="cls-9" d="m 219.73,121.74 c 0,0 -2.5,-8.03 -3.62,-8.17 -1.12,-0.15 -6.29,5.48 -6.29,5.48 0,0 4.77,-9.02 3.2,-13.17 -1.57,-4.14 -6.31,-11.63 -18.43,-7.56 -12.12,4.07 -16.12,10.41 -16.12,10.41 0,0 8.79,-23.77 18.43,-27.33 10.88,-4.02 13.58,4.33 15.62,4 1.54,-0.25 1.71,-5.43 3.78,-6.76 2.3,-1.47 4.01,-5.77 4.01,-5.77 0,0 0.84,5.49 2.1,6.85 0.95,1.02 -0.6,7.5 0.69,8.13 1.29,0.62 12.44,-4.78 17.31,4.24 4.87,9.03 6.22,32.7 6.22,32.7 0,0 -6.66,-20.51 -15.68,-21.43 -7.17,-0.73 -9.52,2.17 -10.12,4.63 -0.58,2.35 -1.07,13.74 -1.07,13.74" id="path18"></path></g><polygon class="cls-4" points="272.9,158.6 291.82,158.93 291.69,166.58 272.77,166.25 272.4,187.6 263.71,187.45 264.59,136.33 295.82,136.87 295.68,144.87 273.15,144.48 " id="polygon22" transform="matrix(1.3131549,0,0,1.3131549,-108.79574,-65.764674)"></polygon><g id="g40" transform="matrix(1.3131549,0,0,1.3131549,-108.79574,-65.764674)"><path class="cls-4" d="m 332.93,187.95 -7.51,-0.13 -0.35,-4.04 c -2.42,3.11 -6.02,4.63 -10.79,4.55 -3.99,-0.07 -7.06,-1.48 -9.21,-4.23 -2.16,-2.75 -3.19,-6.47 -3.11,-11.15 l 0.35,-20.59 8.35,0.15 -0.35,20.17 c -0.04,2.27 0.51,4.12 1.64,5.56 1.13,1.44 2.7,2.17 4.69,2.2 3.11,0.05 5.82,-1.52 8.15,-4.73 l 0.4,-22.95 8.34,0.14 -0.61,35.05 z" id="path24"></path><path class="cls-4" d="m 373.08,156.26 c 2.27,2.78 3.37,6.51 3.28,11.19 l -0.35,20.52 -8.42,-0.15 0.35,-20.03 c 0.04,-2.36 -0.56,-4.28 -1.81,-5.74 -1.25,-1.46 -2.94,-2.21 -5.07,-2.24 -3.11,-0.05 -5.78,1.55 -8.01,4.8 l -0.4,22.95 -8.35,-0.14 0.61,-35.05 7.51,0.13 0.28,4.04 c 2.51,-3.11 6.06,-4.62 10.65,-4.55 4.22,0.07 7.46,1.5 9.74,4.27" id="path26"></path><path class="cls-4" d="m 394.87,162.13 c -1.77,1.94 -2.69,4.56 -2.74,7.85 -0.06,3.29 0.77,5.94 2.47,7.94 1.71,2 3.92,3.02 6.66,3.07 3.52,0.06 6.4,-1.63 8.64,-5.07 l 0.19,-11.27 c -2.12,-3.52 -4.94,-5.3 -8.46,-5.36 -2.73,-0.05 -4.99,0.9 -6.76,2.84 m 23.17,25.83 -7.51,-0.13 -0.35,-4.11 c -2.42,3.16 -6.04,4.7 -10.86,4.61 -4.73,-0.08 -8.55,-1.86 -11.46,-5.35 -2.91,-3.48 -4.32,-7.87 -4.22,-13.15 0.09,-5.33 1.65,-9.68 4.68,-13.03 3.03,-3.36 6.9,-4.99 11.64,-4.91 4.45,0.08 7.88,1.53 10.29,4.35 l 0.37,-21.28 8.35,0.15 -0.91,52.86 z" id="path28"></path><path class="cls-4" d="m 437.81,162.13 c -1.77,1.94 -2.69,4.56 -2.74,7.85 -0.06,3.29 0.77,5.94 2.47,7.94 1.71,2 3.92,3.02 6.66,3.07 3.52,0.06 6.41,-1.63 8.64,-5.07 l 0.19,-11.27 c -2.12,-3.52 -4.94,-5.3 -8.46,-5.37 -2.73,-0.05 -4.99,0.9 -6.76,2.84 m 15.78,-5.26 0.49,-4.09 7.51,0.13 -0.61,35.05 -7.51,-0.13 -0.35,-4.11 c -2.42,3.16 -6.04,4.7 -10.86,4.61 -4.73,-0.08 -8.55,-1.86 -11.46,-5.35 -2.91,-3.48 -4.32,-7.87 -4.23,-13.15 0.09,-5.33 1.65,-9.68 4.68,-13.03 3.03,-3.36 6.9,-5 11.64,-4.91 4.82,0.08 8.39,1.75 10.7,4.99" id="path30"></path><path class="cls-4" d="m 501.83,159.94 -6.13,4.49 c -1.84,-3.37 -4.51,-5.09 -7.98,-5.15 -3.01,-0.05 -5.37,0.93 -7.08,2.94 -1.7,2.01 -2.58,4.62 -2.64,7.82 -0.06,3.15 0.75,5.77 2.4,7.87 1.66,2.09 3.99,3.16 7,3.22 3.43,0.06 6.2,-1.59 8.3,-4.93 l 5.9,4.76 c -3.38,5.09 -8.18,7.58 -14.39,7.47 -5.33,-0.09 -9.64,-1.88 -12.92,-5.37 -3.28,-3.49 -4.87,-7.88 -4.78,-13.16 0.09,-5.33 1.82,-9.67 5.2,-13.02 3.37,-3.35 7.73,-4.98 13.06,-4.89 6.17,0.11 10.85,2.76 14.05,7.96" id="path32"></path><path class="cls-4" d="m 517.16,187.76 -8.34,-0.14 0.61,-35.05 8.35,0.14 -0.61,35.05 z m 0.41,-49.94 c 0.98,0.99 1.46,2.23 1.43,3.71 -0.03,1.48 -0.54,2.7 -1.56,3.66 -1.02,0.96 -2.26,1.42 -3.75,1.4 -1.48,-0.03 -2.7,-0.53 -3.66,-1.52 -0.96,-0.99 -1.42,-2.23 -1.4,-3.71 0.03,-1.48 0.53,-2.7 1.52,-3.66 0.99,-0.96 2.23,-1.42 3.71,-1.4 1.48,0.03 2.71,0.53 3.7,1.53" id="path34"></path><path class="cls-4" d="m 547.51,147.75 -7.79,-0.14 9.62,-9.36 9.67,0.17 z m -10.44,14.53 c -1.87,2.03 -2.83,4.62 -2.88,7.78 -0.06,3.11 0.82,5.69 2.61,7.77 1.8,2.07 4.11,3.13 6.94,3.18 2.83,0.05 5.19,-0.93 7.08,-2.94 1.89,-2.01 2.86,-4.57 2.92,-7.67 0.05,-3.15 -0.83,-5.78 -2.65,-7.87 -1.82,-2.1 -4.14,-3.17 -6.97,-3.22 -2.83,-0.05 -5.18,0.94 -7.05,2.97 m 20.12,-4.94 c 3.39,3.51 5.04,7.91 4.95,13.2 -0.09,5.24 -1.89,9.55 -5.41,12.92 -3.51,3.37 -7.89,5.01 -13.13,4.92 -5.24,-0.09 -9.56,-1.88 -12.95,-5.37 -3.39,-3.49 -5.05,-7.86 -4.96,-13.09 0.09,-5.29 1.89,-9.63 5.41,-13.02 3.51,-3.4 7.89,-5.05 13.13,-4.96 5.24,0.09 9.56,1.89 12.95,5.41" id="path36"></path><path class="cls-4" d="m 598.92,156.26 c 2.27,2.78 3.37,6.51 3.28,11.19 l -0.35,20.52 -8.42,-0.15 0.35,-20.03 c 0.04,-2.36 -0.56,-4.28 -1.81,-5.74 -1.25,-1.46 -2.94,-2.21 -5.07,-2.24 -3.11,-0.05 -5.78,1.55 -8.01,4.8 l -0.4,22.95 -8.35,-0.14 0.61,-35.05 7.51,0.13 0.28,4.04 c 2.51,-3.11 6.06,-4.62 10.65,-4.55 4.22,0.07 7.46,1.5 9.74,4.27" id="path38"></path></g><polygon class="cls-2" points="213.8,283.71 213.19,318.94 203.53,318.77 204.54,260.98 204.85,260.99 238.83,297.75 239.44,262.59 249.1,262.76 248.09,320.55 247.78,320.55 " id="polygon42" transform="matrix(1.3131549,0,0,1.3131549,-108.79574,-65.764674)"></polygon><g id="g54" transform="matrix(1.3131549,0,0,1.3131549,-108.79574,-65.764674)"><path class="cls-2" d="m 270.47,290.77 c -1.97,2.16 -2.99,5.06 -3.05,8.72 -0.07,3.66 0.85,6.6 2.74,8.82 1.89,2.22 4.36,3.36 7.4,3.41 3.91,0.07 7.12,-1.81 9.6,-5.63 l 0.22,-12.51 c -2.35,-3.9 -5.49,-5.89 -9.4,-5.96 -3.04,-0.05 -5.54,1 -7.51,3.15 m 17.53,-5.84 0.54,-4.55 8.35,0.14 -0.68,38.94 -8.34,-0.15 -0.38,-4.57 c -2.69,3.51 -6.71,5.22 -12.07,5.12 -5.25,-0.09 -9.5,-2.07 -12.73,-5.94 -3.23,-3.87 -4.79,-8.74 -4.69,-14.61 0.1,-5.92 1.83,-10.75 5.2,-14.48 3.36,-3.73 7.67,-5.55 12.92,-5.46 5.36,0.09 9.32,1.94 11.88,5.54" id="path44"></path><path class="cls-2" d="m 321.34,280.25 11.74,0.2 -0.14,7.88 -11.74,-0.2 -0.3,17.23 c -0.04,1.96 0.49,3.5 1.58,4.63 1.09,1.13 2.56,1.71 4.41,1.74 2.16,0.04 3.95,-0.34 5.35,-1.14 l 2.35,7.3 c -2.45,1.5 -5.35,2.23 -8.69,2.17 -4.53,-0.08 -8.07,-1.4 -10.6,-3.97 -2.53,-2.57 -3.76,-6.17 -3.68,-10.81 l 0.3,-17.31 -7.34,-0.13 0.14,-7.88 7.34,0.13 0.23,-13.06 9.27,0.16 -0.23,13.06 z" id="path46"></path><path class="cls-2" d="m 375.63,319.46 -8.34,-0.15 -0.38,-4.49 c -2.69,3.46 -6.69,5.14 -11.99,5.05 -4.43,-0.08 -7.84,-1.64 -10.23,-4.7 -2.39,-3.06 -3.55,-7.19 -3.45,-12.39 l 0.4,-22.87 9.27,0.16 -0.39,22.4 c -0.05,2.52 0.56,4.58 1.82,6.18 1.26,1.59 3,2.41 5.21,2.45 3.45,0.06 6.47,-1.69 9.06,-5.25 l 0.44,-25.5 9.27,0.16 -0.68,38.94 z" id="path48"></path><path class="cls-2" d="m 409.03,288.94 h -0.77 c -3.97,-0.08 -7.4,1.82 -10.3,5.68 l -0.43,24.57 -9.27,-0.16 0.68,-38.94 8.34,0.14 0.37,5.19 c 1.11,-1.68 2.65,-3.07 4.63,-4.17 1.98,-1.1 4.28,-1.63 6.91,-1.58 z" id="path50"></path><path class="cls-2" d="m 425.91,290.77 c -1.97,2.16 -2.99,5.06 -3.05,8.72 -0.07,3.66 0.85,6.6 2.74,8.82 1.89,2.22 4.36,3.36 7.4,3.41 3.91,0.07 7.12,-1.81 9.6,-5.63 l 0.22,-12.51 c -2.35,-3.9 -5.49,-5.89 -9.4,-5.96 -3.04,-0.05 -5.54,1 -7.51,3.15 m 17.53,-5.84 0.54,-4.55 8.35,0.14 -0.68,38.94 -8.34,-0.15 -0.38,-4.57 c -2.69,3.51 -6.71,5.22 -12.07,5.12 -5.25,-0.09 -9.5,-2.07 -12.73,-5.94 -3.23,-3.87 -4.79,-8.74 -4.69,-14.61 0.1,-5.92 1.83,-10.75 5.2,-14.48 3.36,-3.73 7.67,-5.55 12.92,-5.46 5.36,0.09 9.32,1.94 11.88,5.54" id="path52"></path></g><rect class="cls-2" x="-344.47208" y="507.01328" width="77.121582" height="12.172946" transform="rotate(-89)" id="rect56"></rect><path class="cls-2" d="m 541.83309,314.03911 c -2.29802,2.12731 -3.58491,4.97685 -3.84753,8.56176 l 24.14891,0.42021 c -0.0787,-3.58491 -1.10305,-6.47385 -3.09904,-8.67995 -1.996,-2.19297 -4.77988,-3.33541 -8.3648,-3.38794 -3.58492,-0.0657 -6.52639,0.97173 -8.8244,3.09905 m 26.42067,-5.17384 c 3.97886,4.97686 5.89607,11.25374 5.76476,18.81752 l -0.0787,4.25462 -36.11177,-0.63032 c 0.0657,4.05765 1.26064,7.19609 3.58491,9.40219 2.32429,2.20611 5.62031,3.34854 9.88806,3.42733 5.6203,0.0919 9.87493,-1.78588 12.79013,-5.65969 l 8.29914,7.05164 c -5.25262,6.06678 -12.36992,9.02138 -21.36503,8.8638 -7.83954,-0.13132 -14.09015,-2.71823 -18.73872,-7.73448 -4.64857,-5.01625 -6.9072,-11.42445 -6.76275,-19.19833 0.13132,-7.70822 2.58691,-14.03763 7.37993,-19.00135 4.79302,-4.96372 10.83353,-7.3668 18.13467,-7.24862 7.51125,0.13132 13.24974,2.67884 17.22859,7.65569" id="path58"></path><polygon class="cls-2" points="557.67,311.56 557.53,319.44 525.24,318.88 525.25,318.57 543.71,288.13 526.94,287.84 527.08,279.96 558.29,280.5 558.29,280.81 539.83,311.25 " id="polygon60" transform="matrix(1.3131549,0,0,1.3131549,-108.79574,-65.764674)"></polygon><path class="cls-2" d="m 647.31883,316.06136 c -2.58692,2.83642 -3.92634,6.64457 -4.00513,11.45072 -0.0919,4.80615 1.11619,8.66681 3.59805,11.58202 2.48186,2.9152 5.72535,4.4122 9.71734,4.47785 5.13444,0.0919 9.34967,-2.37681 12.60629,-7.39306 l 0.28889,-16.42756 c -3.08591,-5.12131 -7.20921,-7.73448 -12.34365,-7.82641 -3.99199,-0.0657 -7.27488,1.31316 -9.86179,4.13644 m 23.0196,-7.66882 0.7091,-5.97486 10.96485,0.18384 -0.89295,51.13426 -10.95171,-0.19697 -0.49899,-6.00112 c -3.53239,4.60917 -8.81128,6.85467 -15.84979,6.72334 -6.89406,-0.11817 -12.47496,-2.71822 -16.71646,-7.80013 -4.24149,-5.08191 -6.29001,-11.47698 -6.1587,-19.18519 0.13132,-7.77388 2.40308,-14.11642 6.82841,-19.01449 4.4122,-4.89806 10.0719,-7.288 16.96596,-7.16982 7.03851,0.11819 12.2386,2.54752 15.60028,7.27488" id="path62"></path><path class="cls-2" d="m 229.43355,242.80045 22.52061,0.39395 -10.80727,-26.06612 z m 46.15739,24.75298 -13.80124,-0.23637 -5.64658,-13.59116 -31.25308,-0.53839 -6.1193,13.39418 -13.80126,-0.23637 36.42691,-75.28316 h 0.40708 c 0,0 33.78747,76.50439 33.78747,76.50439 z" id="path64"></path><g id="g80" transform="matrix(1.3131549,0,0,1.3131549,-108.79574,-65.764674)"><path class="cls-2" d="m 333.19,220.58 c 3.32,-4.53 7.82,-6.74 13.49,-6.64 4.43,0.08 7.85,1.67 10.27,4.78 2.42,3.11 3.58,7.24 3.49,12.39 l -0.4,22.79 -9.35,-0.16 0.39,-22.25 c 0.05,-2.63 -0.56,-4.75 -1.82,-6.37 -1.26,-1.62 -3.02,-2.45 -5.29,-2.49 -3.35,-0.06 -6.29,1.74 -8.83,5.41 0,0.2 0,0.51 0.02,0.93 0.02,0.41 0.03,0.7 0.02,0.85 l -0.41,23.64 -9.35,-0.16 0.39,-22.25 c 0.05,-2.63 -0.56,-4.75 -1.82,-6.37 -1.26,-1.62 -3.02,-2.45 -5.29,-2.49 -3.14,-0.05 -6.06,1.7 -8.75,5.26 l -0.44,25.57 -9.27,-0.16 0.68,-38.94 8.34,0.15 0.31,4.49 c 2.79,-3.46 6.74,-5.14 11.84,-5.05 5.46,0.1 9.39,2.46 11.78,7.08" id="path66"></path><path class="cls-2" d="m 380.95,253.45 -9.27,-0.16 0.68,-38.94 9.27,0.16 z m 0.46,-55.48 c 1.09,1.1 1.62,2.48 1.59,4.13 -0.03,1.65 -0.61,3 -1.73,4.06 -1.13,1.06 -2.51,1.58 -4.16,1.55 -1.65,-0.03 -3,-0.59 -4.07,-1.7 -1.06,-1.1 -1.58,-2.47 -1.55,-4.12 0.03,-1.65 0.59,-3 1.69,-4.07 1.1,-1.06 2.48,-1.58 4.12,-1.55 1.65,0.03 3.02,0.59 4.11,1.69" id="path68"></path><path class="cls-2" d="m 402.91,224.93 c -1.97,2.13 -2.99,4.97 -3.05,8.53 -0.06,3.55 0.85,6.44 2.75,8.67 1.9,2.22 4.36,3.36 7.4,3.41 4.02,0.07 7.22,-1.81 9.6,-5.63 l 0.21,-12.13 c -2.25,-3.9 -5.38,-5.89 -9.4,-5.96 -3.04,-0.05 -5.54,0.99 -7.51,3.12 m 17.53,-5.8 0.54,-4.55 8.35,0.15 -0.66,37.63 c -0.11,6.13 -2.05,10.94 -5.81,14.43 -3.77,3.49 -8.77,5.18 -15.01,5.07 -7.57,-0.13 -13.68,-2.99 -18.32,-8.59 l 6.21,-6 c 3.43,4.18 7.49,6.31 12.18,6.39 3.45,0.06 6.21,-0.94 8.28,-2.99 2.07,-2.05 3.14,-4.8 3.2,-8.25 l 0.06,-3.25 c -2.68,3.1 -6.55,4.6 -11.59,4.51 -5.2,-0.09 -9.42,-2.06 -12.65,-5.9 -3.23,-3.84 -4.8,-8.67 -4.69,-14.49 0.1,-5.82 1.83,-10.58 5.19,-14.29 3.36,-3.7 7.65,-5.51 12.85,-5.42 5.46,0.09 9.42,1.94 11.88,5.54" id="path70"></path><path class="cls-2" d="m 450.85,225.14 c -2.08,2.26 -3.14,5.14 -3.2,8.64 -0.06,3.45 0.91,6.33 2.9,8.63 2,2.3 4.56,3.48 7.7,3.53 3.14,0.05 5.76,-1.03 7.86,-3.26 2.1,-2.23 3.18,-5.07 3.24,-8.52 0.06,-3.5 -0.92,-6.42 -2.94,-8.75 -2.02,-2.33 -4.6,-3.52 -7.74,-3.57 -3.14,-0.05 -5.75,1.05 -7.82,3.3 m 22.35,-5.49 c 3.77,3.9 5.61,8.79 5.5,14.67 -0.1,5.82 -2.1,10.6 -6.01,14.35 -3.9,3.75 -8.76,5.57 -14.59,5.46 -5.82,-0.1 -10.61,-2.09 -14.39,-5.97 -3.77,-3.88 -5.61,-8.73 -5.5,-14.55 0.1,-5.87 2.11,-10.69 6.01,-14.46 3.9,-3.77 8.77,-5.6 14.59,-5.5 5.82,0.1 10.61,2.1 14.39,6.01" id="path72"></path><path class="cls-2" d="m 514.87,218.15 -3.83,6.81 c -2.79,-2.32 -5.94,-3.5 -9.44,-3.56 -4.12,-0.07 -6.2,1.18 -6.25,3.75 -0.02,1.24 0.48,2.17 1.5,2.81 1.02,0.64 3.04,1.34 6.07,2.12 4.31,1.11 7.49,2.63 9.54,4.57 2.05,1.94 3.05,4.38 3,7.32 -0.07,3.76 -1.59,6.75 -4.56,8.96 -2.98,2.21 -6.96,3.28 -11.96,3.19 -6.23,-0.11 -11.15,-1.76 -14.75,-4.97 l 3.98,-6.89 c 3.1,2.68 6.76,4.06 10.98,4.13 4.53,0.08 6.82,-1.27 6.87,-4.06 0.02,-1.29 -0.5,-2.3 -1.57,-3.04 -1.07,-0.74 -3.02,-1.47 -5.84,-2.19 -4.51,-1.16 -7.75,-2.62 -9.7,-4.38 -1.95,-1.76 -2.9,-4.13 -2.85,-7.12 0.07,-3.76 1.49,-6.71 4.29,-8.85 2.79,-2.14 6.59,-3.17 11.38,-3.09 5.46,0.09 9.84,1.59 13.14,4.48" id="path74"></path><path class="cls-2" d="m 536.3,241.1 c -0.86,0.95 -1.31,2.22 -1.34,3.82 -0.03,1.6 0.37,2.89 1.2,3.87 0.83,0.98 1.91,1.47 3.24,1.5 1.71,0.03 3.12,-0.79 4.21,-2.47 l 0.1,-5.49 c -1.03,-1.71 -2.4,-2.58 -4.12,-2.61 -1.33,-0.02 -2.43,0.44 -3.29,1.38 m 11.27,12.58 -3.66,-0.06 -0.17,-2 c -1.18,1.54 -2.94,2.28 -5.29,2.24 -2.3,-0.04 -4.16,-0.91 -5.57,-2.61 -1.41,-1.7 -2.1,-3.83 -2.05,-6.41 0.04,-2.6 0.81,-4.71 2.28,-6.35 1.47,-1.63 3.36,-2.43 5.66,-2.39 2.16,0.04 3.83,0.74 5,2.12 l 0.18,-10.36 4.06,0.07 -0.45,25.74 z" id="path76"></path><path class="cls-2" d="m 557.19,240.42 c -0.77,0.71 -1.2,1.66 -1.29,2.86 l 8.06,0.14 c -0.03,-1.2 -0.37,-2.16 -1.03,-2.9 -0.67,-0.73 -1.6,-1.11 -2.79,-1.13 -1.19,-0.02 -2.18,0.32 -2.95,1.03 m 8.82,-1.73 c 1.33,1.66 1.96,3.76 1.92,6.28 l -0.03,1.42 -12.05,-0.21 c 0.02,1.36 0.42,2.4 1.2,3.14 0.78,0.74 1.88,1.12 3.3,1.14 1.87,0.03 3.3,-0.6 4.27,-1.89 l 2.77,2.35 c -1.75,2.02 -4.13,3.01 -7.13,2.96 -2.62,-0.04 -4.7,-0.91 -6.25,-2.58 -1.55,-1.68 -2.3,-3.81 -2.26,-6.41 0.05,-2.57 0.87,-4.69 2.46,-6.34 1.6,-1.66 3.61,-2.46 6.05,-2.42 2.5,0.04 4.42,0.9 5.74,2.56" id="path78"></path></g><rect class="cls-2" x="-255.62233" y="653.37823" width="33.800606" height="5.3314085" transform="rotate(-88.99)" id="rect82"></rect><path class="cls-2" d="m 666.80604,250.83696 c -1.1293,1.2475 -1.72023,2.91521 -1.7465,5.01625 -0.0394,2.10105 0.48587,3.79502 1.5758,5.08192 1.08991,1.28688 2.50812,1.93033 4.25461,1.96973 2.2455,0.0394 4.09705,-1.0374 5.52839,-3.24349 l 0.13131,-7.20923 c -1.35255,-2.24549 -3.15157,-3.38794 -5.4102,-3.42733 -1.74649,-0.0263 -3.19096,0.57779 -4.32028,1.81215 m 10.08504,-3.36168 0.31515,-2.62631 4.79302,0.0787 -0.39395,22.41556 -4.79301,-0.0787 -0.22324,-2.62631 c -1.54952,2.02226 -3.86068,2.994 -6.94659,2.94146 -3.02025,-0.0525 -5.46273,-1.19497 -7.31428,-3.42733 -1.85154,-2.23236 -2.75762,-5.02938 -2.69196,-8.41732 0.0525,-3.4142 1.05052,-6.18496 2.994,-8.33854 1.93033,-2.14044 4.41219,-3.19096 7.43244,-3.13843 3.08593,0.0525 5.35768,1.11618 6.82842,3.19097" id="path84"></path></svg>